<?xml version="1.0" encoding="UTF-8" standalone="no"?>
<!-- Created with Inkscape (http://www.inkscape.org/) -->

<svg
   width="15mm"
   height="15mm"
   viewBox="0 0 15 15"
   version="1.1"
   id="svg359"
   inkscape:version="1.2.1 (9c6d41e410, 2022-07-14, custom)"
   sodipodi:docname="Apple.svg"
   xmlns:inkscape="http://www.inkscape.org/namespaces/inkscape"
   xmlns:sodipodi="http://sodipodi.sourceforge.net/DTD/sodipodi-0.dtd"
   xmlns="http://www.w3.org/2000/svg"
   xmlns:svg="http://www.w3.org/2000/svg">
  <sodipodi:namedview
     id="namedview361"
     pagecolor="#ffffff"
     bordercolor="#666666"
     borderopacity="1.0"
     inkscape:showpageshadow="2"
     inkscape:pageopacity="0.0"
     inkscape:pagecheckerboard="0"
     inkscape:deskcolor="#d1d1d1"
     inkscape:document-units="mm"
     showgrid="false"
     inkscape:zoom="10.59046"
     inkscape:cx="43.671379"
     inkscape:cy="42.018949"
     inkscape:window-width="2560"
     inkscape:window-height="1365"
     inkscape:window-x="0"
     inkscape:window-y="0"
     inkscape:window-maximized="1"
     inkscape:current-layer="layer1" />
  <defs
     id="defs356">
    <inkscape:path-effect
       effect="bspline"
       id="path-effect608"
       is_visible="true"
       lpeversion="1"
       weight="33.333333"
       steps="2"
       helper_size="0"
       apply_no_weight="true"
       apply_with_weight="true"
       only_selected="false" />
  </defs>
  <g
     inkscape:label="Layer 1"
     inkscape:groupmode="layer"
     id="layer1">
    <path
       style="fill:#44aa00;stroke:#338000;stroke-width:0.364166px;stroke-linecap:butt;stroke-linejoin:miter;stroke-opacity:1"
       d="m 5.1717756,14.372932 c 0.6040882,-0.0499 1.1420105,-0.311018 1.5973127,-0.37782 0.4553022,-0.0668 0.8276968,0.06046 1.3572585,0.157736 0.5295616,0.09727 1.2162905,0.164661 1.9615142,-0.130825 0.745224,-0.295486 1.54925,-0.953727 2.276618,-1.974052 0.727369,-1.020325 1.378163,-2.4028466 1.669173,-3.9030632 C 14.324662,6.6446913 14.2558,5.0266468 13.907398,3.8683135 13.558996,2.7099801 12.930753,2.0113943 12.154668,1.6020477 11.378584,1.192701 10.454629,1.0729392 9.7139473,1.2088162 8.9732652,1.3446932 8.4162236,1.7363192 7.8758416,1.7174586 7.3354596,1.698598 6.8114674,1.2688642 5.9683121,1.0656289 5.1251569,0.8623936 3.9629154,0.8859999 3.0993519,1.1534125 2.2357885,1.4208251 1.6712865,1.932053 1.2213136,2.7520128 0.77134064,3.5719726 0.43602542,4.7003617 0.4314095,6.1359194 c -0.004616,1.4355578 0.32132368,3.1780011 0.842345,4.5565396 0.5210212,1.378538 1.2368745,2.393088 1.9301512,2.980977 0.6932767,0.58789 1.3637817,0.749396 1.9678699,0.699496 z"
       id="path606"
       inkscape:path-effect="#path-effect608"
       inkscape:original-d="m 5.2377631,14.584235 c 0.5383092,-0.260774 1.0762315,-0.521891 1.6137672,-0.783351 0.3727959,0.127613 0.7451905,0.254879 1.1172057,0.381805 0.6871431,0.06773 1.3738716,0.135122 2.060227,0.202168 0.804445,-0.657925 1.608471,-1.316166 2.412126,-1.974763 C 13.092296,11.027857 13.74309,9.6453352 14.393512,8.2624417 14.325033,6.6446755 14.256172,5.026631 14.186921,3.4082114 13.55904,2.7099407 12.930796,2.0113552 12.302153,1.3124128 11.378547,1.1929891 10.454592,1.0732273 9.5302318,0.95311997 8.9735545,1.3451048 8.4165129,1.7367307 7.8590734,2.1280215 7.3354467,1.6986137 6.8114546,1.2688798 6.2870651,0.83879407 5.125164,0.86274427 3.9629225,0.88635087 2.8002714,0.90961437 2.2361334,1.4212059 1.6716314,1.9324339 1.1067315,2.443329 0.77178953,3.572106 0.43647447,4.7004951 0.10076592,5.8285632 c 0.32633924,1.7428557 0.6522787,3.485299 0.97783808,5.2274328 0.7162684,1.014933 1.4321215,2.029483 2.1476025,3.04371 0.670919,0.161856 1.3414243,0.323361 2.0115566,0.484529 z" />
  </g>
</svg>
