<?xml version="1.0" encoding="UTF-8" standalone="no"?>
<!-- Created with Inkscape (http://www.inkscape.org/) -->

<svg
   width="15mm"
   height="15mm"
   viewBox="0 0 15 15"
   version="1.1"
   id="svg436"
   inkscape:version="1.2.1 (9c6d41e410, 2022-07-14, custom)"
   sodipodi:docname="Bread.svg"
   xmlns:inkscape="http://www.inkscape.org/namespaces/inkscape"
   xmlns:sodipodi="http://sodipodi.sourceforge.net/DTD/sodipodi-0.dtd"
   xmlns="http://www.w3.org/2000/svg"
   xmlns:svg="http://www.w3.org/2000/svg">
  <sodipodi:namedview
     id="namedview438"
     pagecolor="#ffffff"
     bordercolor="#666666"
     borderopacity="1.0"
     inkscape:showpageshadow="2"
     inkscape:pageopacity="0.0"
     inkscape:pagecheckerboard="0"
     inkscape:deskcolor="#d1d1d1"
     inkscape:document-units="mm"
     showgrid="false"
     inkscape:zoom="10.59046"
     inkscape:cx="44.237927"
     inkscape:cy="38.714087"
     inkscape:window-width="2560"
     inkscape:window-height="1365"
     inkscape:window-x="0"
     inkscape:window-y="0"
     inkscape:window-maximized="1"
     inkscape:current-layer="layer1" />
  <defs
     id="defs433">
    <inkscape:path-effect
       effect="bspline"
       id="path-effect559"
       is_visible="true"
       lpeversion="1"
       weight="33.333333"
       steps="2"
       helper_size="0"
       apply_no_weight="true"
       apply_with_weight="true"
       only_selected="false" />
  </defs>
  <g
     inkscape:label="Layer 1"
     inkscape:groupmode="layer"
     id="layer1">
    <path
       style="fill:#c87137;stroke:#a05a2c;stroke-width:0.312149px;stroke-linecap:butt;stroke-linejoin:miter;stroke-opacity:1"
       d="M 2.5659945,12.278546 C 2.4387261,10.763373 2.2594673,7.8788416 2.2172478,6.0474494 2.1750283,4.2160572 2.2698977,3.4378963 2.5589516,2.7678525 2.8480054,2.0978086 3.3312111,1.5361654 3.8327369,1.2946817 4.3342627,1.053198 4.8537053,1.1318538 5.3168426,1.4070419 5.7799798,1.6822299 6.186849,2.15365 6.641499,2.1594906 7.096149,2.1653312 7.598825,1.7059479 8.0846753,1.378711 8.5705257,1.0514742 9.0393813,0.85645188 9.5550246,0.81368281 c 0.5156434,-0.0427691 1.0778384,0.06658 1.4695524,0.31765369 0.391714,0.2510736 0.613077,0.6435534 0.777723,1.1771192 0.164645,0.5335658 0.272716,1.2081997 0.31898,2.7584745 0.04626,1.5502749 0.03078,3.9761227 -0.0097,5.6169098 -0.04051,1.640786 -0.106008,2.496453 -0.330702,2.982874 -0.224694,0.486421 -0.608786,0.603921 -1.9645972,0.651344 -1.3558111,0.04742 -3.6833584,0.02471 -5.0074166,-0.0258 C 3.484778,14.241746 3.1642161,14.163361 2.9662916,14.051423 2.7683671,13.939486 2.6932629,13.793718 2.5659945,12.278546 Z"
       id="path557"
       inkscape:path-effect="#path-effect559"
       inkscape:original-d="M 2.6179643,13.647574 C 2.4390176,10.763355 2.259759,7.8788235 2.080188,4.9939796 2.1753734,4.2160993 2.2702428,3.4379384 2.364802,2.6594492 2.8483392,2.0980958 3.3315449,1.5364525 3.814448,0.97448591 4.3342235,1.053457 4.8536661,1.1321128 5.372807,1.210458 5.7800043,1.6822088 6.1868737,2.1536287 6.5934386,2.6247461 7.0964466,2.1656568 7.5991224,1.7062733 8.101496,1.246569 8.5706824,1.051851 9.039538,0.85682861 9.5080908,0.6614903 10.070621,0.77115531 10.632816,0.88050509 11.19471,0.98954424 11.416394,1.382352 11.637757,1.7748319 11.858813,2.1670074 c 0.108386,0.6749734 0.216458,1.3496072 0.32422,2.0239427 -0.01517,2.426257 -0.03066,4.8521048 -0.04646,7.2776889 -0.06519,0.856013 -0.130695,1.71168 -0.196511,2.567053 -0.383793,0.117812 -0.767884,0.235316 -1.152294,0.352505 C 8.4604387,14.365791 6.1328914,14.343074 3.8049855,14.320044 3.4847234,14.241969 3.1641618,14.163583 2.8432819,14.084885 2.7684866,13.939424 2.6933823,13.793657 2.6179643,13.647574 Z" />
  </g>
</svg>
